<svg width="247" height="193" viewBox="0 0 247 193" fill="none" xmlns="http://www.w3.org/2000/svg">
<path d="M26.4643 1.28947e-05C19.4455 1.28947e-05 12.7142 2.54175 7.75121 7.06606C2.78819 11.5904 0 17.7267 0 24.125V168.875C0 175.273 2.78819 181.41 7.75121 185.934C12.7142 190.458 19.4455 193 26.4643 193H88.2143C102.646 193 115.455 186.679 123.5 176.917C131.545 186.679 144.354 193 158.786 193H220.536C227.554 193 234.286 190.458 239.249 185.934C244.212 181.41 247 175.273 247 168.875V24.125C247 17.7267 244.212 11.5904 239.249 7.06606C234.286 2.54175 227.554 1.28947e-05 220.536 1.28947e-05H158.786C144.354 1.28947e-05 131.545 6.32076 123.5 16.0833C119.395 11.0859 114.069 7.03008 107.943 4.23812C101.818 1.44615 95.0627 -0.00499053 88.2143 1.28947e-05H26.4643ZM114.679 40.2083V152.792C114.679 159.19 111.89 165.326 106.927 169.851C101.964 174.375 95.233 176.917 88.2143 176.917H26.4643C24.1247 176.917 21.8809 176.069 20.2266 174.561C18.5723 173.053 17.6429 171.008 17.6429 168.875V24.125C17.6429 21.9922 18.5723 19.9468 20.2266 18.4387C21.8809 16.9306 24.1247 16.0833 26.4643 16.0833H88.2143C95.233 16.0833 101.964 18.6251 106.927 23.1494C111.89 27.6737 114.679 33.81 114.679 40.2083ZM132.321 152.792V40.2083C132.321 33.81 135.11 27.6737 140.073 23.1494C145.036 18.6251 151.767 16.0833 158.786 16.0833H220.536C222.875 16.0833 225.119 16.9306 226.773 18.4387C228.428 19.9468 229.357 21.9922 229.357 24.125V168.875C229.357 171.008 228.428 173.053 226.773 174.561C225.119 176.069 222.875 176.917 220.536 176.917H158.786C151.767 176.917 145.036 174.375 140.073 169.851C135.11 165.326 132.321 159.19 132.321 152.792Z" fill="#0C0F23"/>
</svg>
